<?xml version="1.0" encoding="UTF-8" standalone="no"?>
<svg
   xmlns:dc="http://purl.org/dc/elements/1.1/"
   xmlns:cc="http://creativecommons.org/ns#"
   xmlns:rdf="http://www.w3.org/1999/02/22-rdf-syntax-ns#"
   xmlns:svg="http://www.w3.org/2000/svg"
   xmlns="http://www.w3.org/2000/svg"
   xmlns:sodipodi="http://sodipodi.sourceforge.net/DTD/sodipodi-0.dtd"
   xmlns:inkscape="http://www.inkscape.org/namespaces/inkscape"
   version="1.1"
   x="0px"
   y="0px"
   width="480px"
   height="480px"
   viewBox="0 0 480 480"
   xml:space="preserve"
   id="svg2"
   inkscape:version="0.91 r13725"
   sodipodi:docname="clock.svg"><metadata
     id="metadata13"><rdf:RDF><cc:Work
         rdf:about=""><dc:format>image/svg+xml</dc:format><dc:type
           rdf:resource="http://purl.org/dc/dcmitype/StillImage" /></cc:Work></rdf:RDF></metadata><defs
     id="defs11" /><sodipodi:namedview
     pagecolor="#ffffff"
     bordercolor="#666666"
     borderopacity="1"
     objecttolerance="10"
     gridtolerance="10"
     guidetolerance="10"
     inkscape:pageopacity="0"
     inkscape:pageshadow="2"
     inkscape:window-width="640"
     inkscape:window-height="480"
     id="namedview9"
     showgrid="false"
     inkscape:zoom="0.49166667"
     inkscape:cx="240"
     inkscape:cy="240"
     inkscape:window-x="49"
     inkscape:window-y="34"
     inkscape:window-maximized="0"
     inkscape:current-layer="svg2" /><g
     id="clock"
     style="fill:#ffffff"><path
       d="M237.225,55.998c-99.404,0-180,80.596-180,180.001c0,99.415,80.596,180.001,180,180.001   c99.406,0,179.998-80.586,179.998-180.001C417.223,136.594,336.631,55.998,237.225,55.998z M237.225,368.002   c-72.781,0-132.002-59.213-132.002-132.003c0-72.781,59.221-131.997,132.002-131.997s131.998,59.216,131.998,131.997   C369.223,308.789,310.006,368.002,237.225,368.002z"
       id="path5"
       style="fill:#ffffff" /><path
       d="M309.913,220.001h-60.658c-4.396,0-10.531-2.554-13.625-5.682l-50.717-51.227c-3.102-3.123-8.189-3.149-11.32-0.047   l-11.361,11.252c-3.133,3.103-3.154,8.185-0.057,11.312l60.111,60.709c3.092,3.124,9.229,5.679,13.625,5.679h74.002   c4.393,0,7.998-3.59,7.998-8V228C317.911,223.608,314.305,220.001,309.913,220.001z"
       id="path7"
       style="fill:#ffffff" /></g></svg>